<svg width="1444" height="1090" viewBox="0 0 1444 1090" fill="none" xmlns="http://www.w3.org/2000/svg">
<g id="working">
<g id="sky" clip-path="url(#clip0)">
<path id="Vector" d="M1443.99 761.59C1443.99 762.449 1443.99 763.309 1443.99 764.183C1443.11 791.042 1429.75 817.755 1405.37 836.617C1379.5 856.601 1344.81 867.118 1309.2 873.832C1303.63 874.881 1298.04 875.828 1292.45 876.745C1289.61 877.182 1286.77 877.619 1283.95 878.027C1204.67 889.68 1123.72 891.908 1043.16 894.049C958.88 896.38 874.526 898.681 790.16 899.876L773.427 900.094C645.421 901.638 517.466 900.342 389.927 892.214C350.346 889.709 310.375 886.388 271.133 880.795C265.538 880.028 259.96 879.188 254.4 878.275C202.354 869.929 151.856 857.126 105.848 836.341C94.9869 831.487 84.3634 825.993 74.0218 819.881C45.1233 802.709 20.7528 780.991 8.69116 754.336C1.67479 738.709 -1.21401 721.165 0.36382 703.765C0.879868 697.439 1.85019 691.17 3.26538 685.019C6.89303 669.799 12.4257 655.23 19.6989 641.744C38.4874 606.175 66.7093 574.291 91.0408 540.892C142.983 469.711 176.812 379.768 128.878 306.809C115.125 285.849 95.2435 267.482 84.0406 245.561C78.0476 233.719 74.3086 220.617 73.0589 207.079C72.4507 200.855 72.2203 194.592 72.3693 188.333C72.9008 173.717 74.533 159.178 77.2486 144.869C85.0555 100.124 99.6413 51.8826 144.687 23.9749C175.433 4.92317 214.624 -0.990453 254.361 0.131096C259.938 0.276752 265.516 0.568061 271.093 1.00503C286.33 2.12658 301.475 4.19489 316.1 6.83126C406.452 22.9845 489.842 56.7329 574.027 87.2041C638.121 110.392 704.506 132.081 773.388 142.422C778.957 143.252 784.526 144.024 790.121 144.694C806.268 146.675 822.559 147.986 838.979 148.525C920.704 151.147 1016.05 131.338 1070.32 79.8922C1122.75 30.1653 1221.06 26.1598 1292.42 55.859L1293.48 56.3105C1298.85 58.6022 1304.06 61.0686 1309.1 63.7098C1361.68 91.3844 1396.9 138.781 1401.87 188.377C1402.49 194.536 1402.64 200.745 1402.31 206.933C1402.32 206.996 1402.32 207.06 1402.31 207.122C1398.9 268.138 1354.35 319.379 1309.11 370.708C1303.51 377.044 1297.91 383.38 1292.36 389.76C1277.69 406.627 1263.47 423.625 1251.13 441.118C1245.5 449.047 1240.32 457.366 1235.62 466.025C1231.3 474.012 1227.62 482.405 1224.6 491.107C1221.42 500.117 1219.37 509.578 1218.52 519.219C1217.26 533.038 1219.51 546.977 1225.03 559.42L1225.15 559.711C1237.22 586.512 1262.78 605.505 1292.36 622.343C1297.82 625.46 1303.42 628.49 1309.11 631.49C1341.2 648.445 1375.77 664.19 1402.05 685.121C1409.14 690.637 1415.75 696.879 1421.8 703.765C1424.27 706.621 1426.59 709.62 1428.78 712.752C1438.37 726.326 1443.71 743.058 1443.97 760.367C1443.99 760.803 1443.99 761.197 1443.99 761.59Z" fill="#6C63FF"/>
<path id="Vector_2" d="M1443.99 761.59C1443.99 762.449 1443.99 763.309 1443.99 764.183C1443.11 791.042 1429.75 817.755 1405.37 836.617C1379.5 856.601 1344.81 867.118 1309.2 873.832C1303.63 874.881 1298.04 875.828 1292.45 876.745C1289.61 877.182 1286.77 877.619 1283.95 878.027C1204.67 889.68 1123.72 891.908 1043.16 894.049C958.88 896.38 874.526 898.681 790.16 899.876L773.427 900.094C645.421 901.638 517.466 900.342 389.927 892.214C350.346 889.709 310.375 886.388 271.133 880.795C265.538 880.028 259.96 879.188 254.4 878.275C202.354 869.929 151.856 857.126 105.848 836.341C94.9869 831.487 84.3634 825.993 74.0218 819.881C45.1233 802.709 20.7528 780.991 8.69116 754.336C1.67479 738.709 -1.21401 721.165 0.36382 703.765C0.879868 697.439 1.85019 691.17 3.26538 685.019C6.89303 669.799 12.4257 655.23 19.6989 641.744C38.4874 606.175 66.7093 574.291 91.0408 540.892C142.983 469.711 176.812 379.768 128.878 306.809C115.125 285.849 95.2435 267.482 84.0406 245.561C78.0476 233.719 74.3086 220.617 73.0589 207.079C72.4507 200.855 72.2203 194.592 72.3693 188.333C72.9008 173.717 74.533 159.178 77.2486 144.869C85.0555 100.124 99.6413 51.8826 144.687 23.9749C175.433 4.92317 214.624 -0.990453 254.361 0.131096C259.938 0.276752 265.516 0.568061 271.093 1.00503C286.33 2.12658 301.475 4.19489 316.1 6.83126C406.452 22.9845 489.842 56.7329 574.027 87.2041C638.121 110.392 704.506 132.081 773.388 142.422C778.957 143.252 784.526 144.024 790.121 144.694C806.268 146.675 822.559 147.986 838.979 148.525C920.704 151.147 1016.05 131.338 1070.32 79.8922C1122.75 30.1653 1221.06 26.1598 1292.42 55.859L1293.48 56.3105C1298.85 58.6022 1304.06 61.0686 1309.1 63.7098C1361.68 91.3844 1396.9 138.781 1401.87 188.377C1402.49 194.536 1402.64 200.745 1402.31 206.933C1402.32 206.996 1402.32 207.06 1402.31 207.122C1398.9 268.138 1354.35 319.379 1309.11 370.708C1303.51 377.044 1297.91 383.38 1292.36 389.76C1277.69 406.627 1263.47 423.625 1251.13 441.118C1245.5 449.047 1240.32 457.366 1235.62 466.025C1231.3 474.012 1227.62 482.405 1224.6 491.107C1221.42 500.117 1219.37 509.578 1218.52 519.219C1217.26 533.038 1219.51 546.977 1225.03 559.42L1225.15 559.711C1237.22 586.512 1262.78 605.505 1292.36 622.343C1297.82 625.46 1303.42 628.49 1309.11 631.49C1341.2 648.445 1375.77 664.19 1402.05 685.121C1409.14 690.637 1415.75 696.879 1421.8 703.765C1424.27 706.621 1426.59 709.62 1428.78 712.752C1438.37 726.326 1443.71 743.058 1443.97 760.367C1443.99 760.803 1443.99 761.197 1443.99 761.59Z" fill="url(#paint0_linear)"/>
<g id="stars-3">
<path id="Vector_3" d="M697.879 262.924C700.574 262.924 702.759 260.479 702.759 257.462C702.759 254.445 700.574 252 697.879 252C695.185 252 693 254.445 693 257.462C693 260.479 695.185 262.924 697.879 262.924Z" fill="#E7EFFD"/>
<path id="Vector_4" d="M1250.88 278.924C1253.57 278.924 1255.76 276.479 1255.76 273.462C1255.76 270.445 1253.57 268 1250.88 268C1248.18 268 1246 270.445 1246 273.462C1246 276.479 1248.18 278.924 1250.88 278.924Z" fill="#E7EFFD"/>
<path id="Vector_5" d="M842.879 534.924C845.574 534.924 847.759 532.479 847.759 529.462C847.759 526.445 845.574 524 842.879 524C840.185 524 838 526.445 838 529.462C838 532.479 840.185 534.924 842.879 534.924Z" fill="#E7EFFD"/>
<path id="Vector_6" d="M410.879 660.924C413.574 660.924 415.759 658.479 415.759 655.462C415.759 652.445 413.574 650 410.879 650C408.185 650 406 652.445 406 655.462C406 658.479 408.185 660.924 410.879 660.924Z" fill="#E7EFFD"/>
<path id="Vector_7" d="M1011.88 750.924C1014.57 750.924 1016.76 748.479 1016.76 745.462C1016.76 742.445 1014.57 740 1011.88 740C1009.18 740 1007 742.445 1007 745.462C1007 748.479 1009.18 750.924 1011.88 750.924Z" fill="#E7EFFD"/>
<path id="Vector_8" d="M187.879 671.924C190.574 671.924 192.759 669.479 192.759 666.462C192.759 663.445 190.574 661 187.879 661C185.185 661 183 663.445 183 666.462C183 669.479 185.185 671.924 187.879 671.924Z" fill="#E7EFFD"/>
<path id="Vector_9" d="M1049.88 539.924C1052.57 539.924 1054.76 537.479 1054.76 534.462C1054.76 531.445 1052.57 529 1049.88 529C1047.18 529 1045 531.445 1045 534.462C1045 537.479 1047.18 539.924 1049.88 539.924Z" fill="#E7EFFD"/>
<path id="Vector_10" d="M721.879 820.924C724.574 820.924 726.759 818.479 726.759 815.462C726.759 812.445 724.574 810 721.879 810C719.185 810 717 812.445 717 815.462C717 818.479 719.185 820.924 721.879 820.924Z" fill="#E7EFFD"/>
<path id="Vector_11" d="M687.879 480.924C690.574 480.924 692.759 478.479 692.759 475.462C692.759 472.445 690.574 470 687.879 470C685.185 470 683 472.445 683 475.462C683 478.479 685.185 480.924 687.879 480.924Z" fill="#E7EFFD"/>
<path id="Vector_12" d="M335.879 389.924C338.574 389.924 340.759 387.479 340.759 384.462C340.759 381.445 338.574 379 335.879 379C333.185 379 331 381.445 331 384.462C331 387.479 333.185 389.924 335.879 389.924Z" fill="#E7EFFD"/>
<path id="Vector_13" d="M586.974 202.583H583.773V199H583.188V202.583H580V203.224H583.188V206.807H583.773V203.224H586.974V202.583Z" fill="#E7EFFD"/>
<path id="Vector_14" d="M220.974 420.583H217.773V417H217.188V420.583H214V421.224H217.188V424.807H217.773V421.224H220.974V420.583Z" fill="#E7EFFD"/>
<path id="Vector_15" d="M119.974 596.583H116.773V593H116.188V596.583H113V597.224H116.188V600.807H116.773V597.224H119.974V596.583Z" fill="#E7EFFD"/>
<path id="Vector_16" d="M586.974 571.583H583.773V568H583.188V571.583H580V572.224H583.188V575.807H583.773V572.224H586.974V571.583Z" fill="#E7EFFD"/>
<path id="Vector_17" d="M495.974 402.583H492.773V399H492.188V402.583H489V403.224H492.188V406.807H492.773V403.224H495.974V402.583Z" fill="#E7EFFD"/>
</g>
<g id="stars-2">
<path id="Vector_18" d="M313.993 110.057C316.688 110.057 318.872 107.612 318.872 104.595C318.872 101.579 316.688 99.1333 313.993 99.1333C311.298 99.1333 309.114 101.579 309.114 104.595C309.114 107.612 311.298 110.057 313.993 110.057Z" fill="#E7EFFD"/>
<path id="Vector_19" d="M473.879 338.924C476.574 338.924 478.759 336.479 478.759 333.462C478.759 330.445 476.574 328 473.879 328C471.185 328 469 330.445 469 333.462C469 336.479 471.185 338.924 473.879 338.924Z" fill="#E7EFFD"/>
<path id="Vector_20" d="M157.725 99.1187C160.42 99.1187 162.604 96.6733 162.604 93.6566C162.604 90.64 160.42 88.1945 157.725 88.1945C155.03 88.1945 152.846 90.64 152.846 93.6566C152.846 96.6733 155.03 99.1187 157.725 99.1187Z" fill="#E7EFFD"/>
<path id="Vector_21" d="M369.109 106.94C370.266 106.94 371.204 105.891 371.204 104.595C371.204 103.3 370.266 102.25 369.109 102.25C367.952 102.25 367.015 103.3 367.015 104.595C367.015 105.891 367.952 106.94 369.109 106.94Z" fill="#E7EFFD"/>
<path id="Vector_22" d="M343.095 241.69C344.252 241.69 345.19 240.64 345.19 239.345C345.19 238.05 344.252 237 343.095 237C341.938 237 341 238.05 341 239.345C341 240.64 341.938 241.69 343.095 241.69Z" fill="#E7EFFD"/>
<path id="Vector_23" d="M267.095 501.69C268.252 501.69 269.19 500.64 269.19 499.345C269.19 498.05 268.252 497 267.095 497C265.938 497 265 498.05 265 499.345C265 500.64 265.938 501.69 267.095 501.69Z" fill="#E7EFFD"/>
<path id="Vector_24" d="M605.095 317.69C606.252 317.69 607.19 316.64 607.19 315.345C607.19 314.05 606.252 313 605.095 313C603.938 313 603 314.05 603 315.345C603 316.64 603.938 317.69 605.095 317.69Z" fill="#E7EFFD"/>
<path id="Vector_25" d="M845.095 236.69C846.252 236.69 847.19 235.64 847.19 234.345C847.19 233.05 846.252 232 845.095 232C843.938 232 843 233.05 843 234.345C843 235.64 843.938 236.69 845.095 236.69Z" fill="#E7EFFD"/>
<path id="Vector_26" d="M1045.09 419.69C1046.25 419.69 1047.19 418.64 1047.19 417.345C1047.19 416.05 1046.25 415 1045.09 415C1043.94 415 1043 416.05 1043 417.345C1043 418.64 1043.94 419.69 1045.09 419.69Z" fill="#E7EFFD"/>
<path id="Vector_27" d="M1220.09 637.69C1221.25 637.69 1222.19 636.64 1222.19 635.345C1222.19 634.05 1221.25 633 1220.09 633C1218.94 633 1218 634.05 1218 635.345C1218 636.64 1218.94 637.69 1220.09 637.69Z" fill="#E7EFFD"/>
<path id="Vector_28" d="M1298.09 784.69C1299.25 784.69 1300.19 783.64 1300.19 782.345C1300.19 781.05 1299.25 780 1298.09 780C1296.94 780 1296 781.05 1296 782.345C1296 783.64 1296.94 784.69 1298.09 784.69Z" fill="#E7EFFD"/>
<path id="Vector_29" d="M365.095 789.69C366.252 789.69 367.19 788.64 367.19 787.345C367.19 786.05 366.252 785 365.095 785C363.938 785 363 786.05 363 787.345C363 788.64 363.938 789.69 365.095 789.69Z" fill="#E7EFFD"/>
<path id="Vector_30" d="M97.0948 709.69C98.2518 709.69 99.1897 708.64 99.1897 707.345C99.1897 706.05 98.2518 705 97.0948 705C95.9379 705 95 706.05 95 707.345C95 708.64 95.9379 709.69 97.0948 709.69Z" fill="#E7EFFD"/>
<path id="Vector_31" d="M293.095 605.69C294.252 605.69 295.19 604.64 295.19 603.345C295.19 602.05 294.252 601 293.095 601C291.938 601 291 602.05 291 603.345C291 604.64 291.938 605.69 293.095 605.69Z" fill="#E7EFFD"/>
<path id="Vector_32" d="M578.095 660.69C579.252 660.69 580.19 659.64 580.19 658.345C580.19 657.05 579.252 656 578.095 656C576.938 656 576 657.05 576 658.345C576 659.64 576.938 660.69 578.095 660.69Z" fill="#E7EFFD"/>
<path id="Vector_33" d="M801.095 649.69C802.252 649.69 803.19 648.64 803.19 647.345C803.19 646.05 802.252 645 801.095 645C799.938 645 799 646.05 799 647.345C799 648.64 799.938 649.69 801.095 649.69Z" fill="#E7EFFD"/>
<path id="Vector_34" d="M907.095 825.69C908.252 825.69 909.19 824.64 909.19 823.345C909.19 822.05 908.252 821 907.095 821C905.938 821 905 822.05 905 823.345C905 824.64 905.938 825.69 907.095 825.69Z" fill="#E7EFFD"/>
<path id="Vector_35" d="M990.095 632.69C991.252 632.69 992.19 631.64 992.19 630.345C992.19 629.05 991.252 628 990.095 628C988.938 628 988 629.05 988 630.345C988 631.64 988.938 632.69 990.095 632.69Z" fill="#E7EFFD"/>
<path id="Vector_36" d="M1149.09 753.69C1150.25 753.69 1151.19 752.64 1151.19 751.345C1151.19 750.05 1150.25 749 1149.09 749C1147.94 749 1147 750.05 1147 751.345C1147 752.64 1147.94 753.69 1149.09 753.69Z" fill="#E7EFFD"/>
<path id="Vector_37" d="M533.095 779.69C534.252 779.69 535.19 778.64 535.19 777.345C535.19 776.05 534.252 775 533.095 775C531.938 775 531 776.05 531 777.345C531 778.64 531.938 779.69 533.095 779.69Z" fill="#E7EFFD"/>
<path id="Vector_38" d="M214.095 629.69C215.252 629.69 216.19 628.64 216.19 627.345C216.19 626.05 215.252 625 214.095 625C212.938 625 212 626.05 212 627.345C212 628.64 212.938 629.69 214.095 629.69Z" fill="#E7EFFD"/>
<path id="Vector_39" d="M463.095 570.69C464.252 570.69 465.19 569.64 465.19 568.345C465.19 567.05 464.252 566 463.095 566C461.938 566 461 567.05 461 568.345C461 569.64 461.938 570.69 463.095 570.69Z" fill="#E7EFFD"/>
<path id="Vector_40" d="M438.916 334.731H435.715V331.148H435.143V334.731H431.942V335.372H435.143V338.955H435.715V335.372H438.916V334.731Z" fill="#E7EFFD"/>
<path id="Vector_41" d="M1104.17 260.258H1100.97V256.674H1100.38V260.258H1097.19V260.898H1100.38V264.482H1100.97V260.898H1104.17V260.258Z" fill="#E7EFFD"/>
<path id="Vector_42" d="M1107.97 342.583H1104.77V339H1104.19V342.583H1101V343.224H1104.19V346.807H1104.77V343.224H1107.97V342.583Z" fill="#E7EFFD"/>
<path id="Vector_43" d="M1104.17 260.258H1100.97V256.674H1100.38V260.258H1097.19V260.898H1100.38V264.482H1100.97V260.898H1104.17V260.258Z" fill="#E7EFFD"/>
</g>
<g id="stars-1">
<path id="Vector_44" d="M517.76 247.319H513.17V242.182H512.331V247.319H507.76V248.259H512.331V253.376H513.17V248.259H517.76V247.319Z" fill="#E7EFFD"/>
<path id="Vector_45" d="M801 333.138H796.41V328H795.571V333.138H791V334.078H795.571V339.194H796.41V334.078H801V333.138Z" fill="#E7EFFD"/>
<path id="Vector_46" d="M1128 475.138H1123.41V470H1122.57V475.138H1118V476.078H1122.57V481.194H1123.41V476.078H1128V475.138Z" fill="#E7EFFD"/>
<path id="Vector_47" d="M377 475.138H372.41V470H371.571V475.138H367V476.078H371.571V481.194H372.41V476.078H377V475.138Z" fill="#E7EFFD"/>
<path id="Vector_48" d="M1133 611.138H1128.41V606H1127.57V611.138H1123V612.078H1127.57V617.194H1128.41V612.078H1133V611.138Z" fill="#E7EFFD"/>
<path id="Vector_49" d="M654 635.138H649.41V630H648.571V635.138H644V636.078H648.571V641.194H649.41V636.078H654V635.138Z" fill="#E7EFFD"/>
<path id="Vector_50" d="M517.76 247.319H513.17V242.182H512.331V247.319H507.76V248.259H512.331V253.376H513.17V248.259H517.76V247.319Z" fill="#E7EFFD"/>
<path id="Vector_51" d="M509.854 477.124C511.011 477.124 511.949 476.074 511.949 474.779C511.949 473.484 511.011 472.434 509.854 472.434C508.698 472.434 507.76 473.484 507.76 474.779C507.76 476.074 508.698 477.124 509.854 477.124Z" fill="#E7EFFD"/>
<path id="Vector_52" d="M987.597 267.613C988.754 267.613 989.691 266.563 989.691 265.268C989.691 263.973 988.754 262.923 987.597 262.923C986.44 262.923 985.502 263.973 985.502 265.268C985.502 266.563 986.44 267.613 987.597 267.613Z" fill="#E7EFFD"/>
<path id="Vector_53" d="M1198.11 378.676C1199.27 378.676 1200.2 377.626 1200.2 376.331C1200.2 375.035 1199.27 373.986 1198.11 373.986C1196.95 373.986 1196.01 375.035 1196.01 376.331C1196.01 377.626 1196.95 378.676 1198.11 378.676Z" fill="#E7EFFD"/>
<path id="Vector_54" d="M868.425 398.791C869.582 398.791 870.519 397.741 870.519 396.446C870.519 395.151 869.582 394.101 868.425 394.101C867.268 394.101 866.33 395.151 866.33 396.446C866.33 397.741 867.268 398.791 868.425 398.791Z" fill="#E7EFFD"/>
<path id="Vector_55" d="M705.095 758.69C706.252 758.69 707.19 757.64 707.19 756.345C707.19 755.05 706.252 754 705.095 754C703.938 754 703 755.05 703 756.345C703 757.64 703.938 758.69 705.095 758.69Z" fill="#E7EFFD"/>
<path id="Vector_56" d="M743.095 485.69C744.252 485.69 745.19 484.64 745.19 483.345C745.19 482.05 744.252 481 743.095 481C741.938 481 741 482.05 741 483.345C741 484.64 741.938 485.69 743.095 485.69Z" fill="#E7EFFD"/>
<path id="Vector_57" d="M1019.09 496.69C1020.25 496.69 1021.19 495.64 1021.19 494.345C1021.19 493.05 1020.25 492 1019.09 492C1017.94 492 1017 493.05 1017 494.345C1017 495.64 1017.94 496.69 1019.09 496.69Z" fill="#E7EFFD"/>
<path id="Vector_58" d="M1278.09 255.69C1279.25 255.69 1280.19 254.64 1280.19 253.345C1280.19 252.05 1279.25 251 1278.09 251C1276.94 251 1276 252.05 1276 253.345C1276 254.64 1276.94 255.69 1278.09 255.69Z" fill="#E7EFFD"/>
<path id="Vector_59" d="M1224.09 739.69C1225.25 739.69 1226.19 738.64 1226.19 737.345C1226.19 736.05 1225.25 735 1224.09 735C1222.94 735 1222 736.05 1222 737.345C1222 738.64 1222.94 739.69 1224.09 739.69Z" fill="#E7EFFD"/>
<path id="Vector_60" d="M212.139 101.478C213.296 101.478 214.234 100.428 214.234 99.1333C214.234 97.8381 213.296 96.7882 212.139 96.7882C210.982 96.7882 210.044 97.8381 210.044 99.1333C210.044 100.428 210.982 101.478 212.139 101.478Z" fill="#E7EFFD"/>
<path id="Vector_61" d="M210.057 265.268C211.214 265.268 212.152 264.218 212.152 262.923C212.152 261.628 211.214 260.578 210.057 260.578C208.9 260.578 207.962 261.628 207.962 262.923C207.962 264.218 208.9 265.268 210.057 265.268Z" fill="#E7EFFD"/>
<path id="Vector_62" d="M1176.25 141.49C1177.41 141.49 1178.34 140.44 1178.34 139.145C1178.34 137.85 1177.41 136.8 1176.25 136.8C1175.09 136.8 1174.16 137.85 1174.16 139.145C1174.16 140.44 1175.09 141.49 1176.25 141.49Z" fill="#E7EFFD"/>
<path id="Vector_63" d="M466.773 143.646C467.93 143.646 468.868 142.596 468.868 141.301C468.868 140.005 467.93 138.956 466.773 138.956C465.617 138.956 464.679 140.005 464.679 141.301C464.679 142.596 465.617 143.646 466.773 143.646Z" fill="#E7EFFD"/>
<path id="Vector_64" d="M1073 138.956C1074.16 138.956 1075.1 137.906 1075.1 136.611C1075.1 135.315 1074.16 134.265 1073 134.265C1071.85 134.265 1070.91 135.315 1070.91 136.611C1070.91 137.906 1071.85 138.956 1073 138.956Z" fill="#E7EFFD"/>
<path id="Vector_65" d="M1336.71 145.991C1337.86 145.991 1338.8 144.941 1338.8 143.646C1338.8 142.351 1337.86 141.301 1336.71 141.301C1335.55 141.301 1334.61 142.351 1334.61 143.646C1334.61 144.941 1335.55 145.991 1336.71 145.991Z" fill="#E7EFFD"/>
</g>
</g>
<g id="person" clip-path="url(#clip1)">
<g id="head">
<path id="Vector_66" d="M819.929 616.416C840.03 616.416 856.325 600.121 856.325 580.02C856.325 559.919 840.03 543.624 819.929 543.624C799.829 543.624 783.534 559.919 783.534 580.02C783.534 600.121 799.829 616.416 819.929 616.416Z" fill="#2F2E41"/>
<path id="Vector_67" d="M830.069 544.626C836.368 544.627 842.559 546.262 848.036 549.372C853.514 552.482 858.091 556.96 861.319 562.368C864.548 567.777 866.318 573.93 866.457 580.228C866.595 586.525 865.097 592.75 862.109 598.295C865.264 594.347 867.563 589.785 868.857 584.9C870.152 580.014 870.415 574.913 869.63 569.92C868.844 564.928 867.027 560.154 864.294 555.902C861.561 551.651 857.973 548.015 853.757 545.227C849.542 542.439 844.792 540.56 839.81 539.709C834.828 538.859 829.724 539.055 824.822 540.286C819.92 541.517 815.328 543.756 811.34 546.859C807.351 549.963 804.052 553.864 801.654 558.313C805.057 554.041 809.378 550.592 814.298 548.223C819.218 545.853 824.609 544.624 830.069 544.626V544.626Z" fill="#2F2E41"/>
<path id="Vector_68" d="M751.919 579.943C810.965 579.943 858.831 532.077 858.831 473.031C858.831 413.984 810.965 366.118 751.919 366.118C692.873 366.118 645.006 413.984 645.006 473.031C645.006 532.077 692.873 579.943 751.919 579.943Z" fill="#2F2E41"/>
<path id="Vector_69" d="M668.01 406.696C686.432 385.978 712.182 373.228 739.827 371.137C767.472 369.045 794.848 377.776 816.177 395.486C815.303 394.655 814.438 393.818 813.529 393.01C792.336 374.179 764.532 364.536 736.23 366.202C707.928 367.869 681.447 380.708 662.611 401.897C643.775 423.086 634.126 450.888 635.786 479.19C637.446 507.492 650.279 533.976 671.463 552.817C672.372 553.625 673.305 554.386 674.233 555.157C654.146 536.049 642.268 509.884 641.107 482.185C639.946 454.485 649.592 427.418 668.01 406.696V406.696Z" fill="#2F2E41"/>
<path id="Vector_70" d="M751.013 579.037C789.042 579.037 819.872 548.208 819.872 510.178C819.872 472.148 789.042 441.319 751.013 441.319C712.983 441.319 682.154 472.148 682.154 510.178C682.154 548.208 712.983 579.037 751.013 579.037Z" fill="#FFB8B8"/>
<path id="Vector_71" d="M681.248 505.648C684.25 505.648 686.684 501.186 686.684 495.681C686.684 490.177 684.25 485.715 681.248 485.715C678.245 485.715 675.812 490.177 675.812 495.681C675.812 501.186 678.245 505.648 681.248 505.648Z" fill="#FFB8B8"/>
<path id="Vector_72" d="M820.778 505.648C823.78 505.648 826.214 501.186 826.214 495.681C826.214 490.177 823.78 485.715 820.778 485.715C817.775 485.715 815.341 490.177 815.341 495.681C815.341 501.186 817.775 505.648 820.778 505.648Z" fill="#FFB8B8"/>
<path id="Vector_73" d="M692.12 424.104V492.963H708.067L728.362 471.218L725.644 492.963H796.133L791.784 471.218L800.482 492.963H811.717V424.104H692.12Z" fill="#2F2E41"/>
</g>
<g id="torso">
<path id="neck" d="M699.835 532.097C699.835 532.097 709.882 615.34 695.494 624.571C681.106 633.802 779.101 645.327 779.101 645.327C779.101 645.327 763.532 554.902 799.492 530.917L699.835 532.097Z" fill="#FFB8B8"/>
<path id="Vector_74" d="M787.732 608.981C787.732 608.981 814.563 596.062 775.759 601.01C736.954 605.958 703.225 589.142 703.225 589.142C703.225 589.142 691.312 577.503 689.65 590.208C687.989 602.913 695.515 626.383 655.695 630.479C615.875 634.575 579.508 624.133 565.334 651.483C551.16 678.834 559.803 796.525 559.803 796.525C559.803 796.525 588.141 894.049 610.056 908.287C631.971 922.525 821.99 900.34 821.99 900.34L875.189 801.851L873.837 687.698C873.837 687.698 866.117 647.921 815.512 659.394C815.512 659.394 782.811 652.532 784.43 636.203C786.048 619.874 787.732 608.981 787.732 608.981Z" fill="#D0CDE1"/>
<path id="Vector_75" d="M603.127 629.289C603.127 629.289 623.488 665.292 616.777 710.677C610.065 756.061 640.387 868.059 640.387 868.059L662.066 862.366C662.066 862.366 646.455 768.316 649.821 746.53C653.187 724.743 652.179 639.582 633.93 628.925C615.682 618.268 603.127 629.289 603.127 629.289Z" fill="#2F2E41"/>
<path id="Vector_76" d="M814.297 664.453L824.289 864.975L838.892 873.863C838.892 873.863 857.122 653.464 846.25 653.593L824.129 653.855C822.777 653.871 821.442 654.162 820.206 654.71C818.97 655.258 817.858 656.052 816.938 657.044C816.019 658.035 815.31 659.203 814.856 660.477C814.402 661.751 814.212 663.104 814.297 664.453V664.453Z" fill="#2F2E41"/>
</g>
<path id="right-arm" d="M856.113 675.077C856.113 675.077 1053.63 832.728 1017.39 870.781C981.146 908.835 843.429 897.962 843.429 897.962L852.489 852.661L932.22 843.6L892.355 803.734L856.113 807.359V675.077Z" fill="#D0CDE1"/>
<path id="left-arm" d="M589.738 646.084L564.437 653.698C564.437 653.698 388.597 783.802 381.349 820.043C374.101 856.285 415.779 876.217 415.779 876.217L573.429 950.513L589.738 907.023L515.443 868.969C515.443 868.969 520.879 858.097 499.134 856.285C477.389 854.473 473.765 830.916 473.765 830.916C473.765 830.916 517.255 763.869 540.812 778.365C564.369 792.862 571.617 803.734 571.617 803.734L589.738 646.084Z" fill="#D0CDE1"/>
<g id="laptop">
<path id="Vector_77" d="M950.6 982.481V988.551C950.603 990.217 950.295 991.869 949.69 993.421C949.421 994.113 949.097 994.782 948.72 995.421C947.528 997.421 945.837 999.078 943.812 1000.23C941.787 1001.38 939.499 1001.98 937.17 1001.98H490.62C488.291 1001.98 486.003 1001.38 483.978 1000.23C481.953 999.078 480.262 997.421 479.07 995.421C478.693 994.782 478.369 994.113 478.1 993.421C477.495 991.869 477.187 990.217 477.19 988.551V982.481C477.19 980.717 477.537 978.97 478.211 977.341C478.886 975.711 479.875 974.231 481.122 972.983C482.37 971.736 483.85 970.747 485.48 970.072C487.11 969.397 488.856 969.05 490.62 969.051H516.36V966.221C516.36 966.147 516.374 966.074 516.402 966.006C516.43 965.938 516.472 965.877 516.524 965.825C516.576 965.773 516.638 965.731 516.706 965.703C516.774 965.675 516.846 965.661 516.92 965.661H530.35C530.424 965.661 530.496 965.675 530.564 965.703C530.632 965.731 530.694 965.773 530.746 965.825C530.798 965.877 530.84 965.938 530.868 966.006C530.896 966.074 530.91 966.147 530.91 966.221V969.051H539.3V966.221C539.3 966.147 539.314 966.074 539.342 966.006C539.37 965.938 539.412 965.877 539.464 965.825C539.516 965.773 539.578 965.731 539.646 965.703C539.714 965.675 539.786 965.661 539.86 965.661H553.29C553.364 965.661 553.436 965.675 553.504 965.703C553.572 965.731 553.634 965.773 553.686 965.825C553.738 965.877 553.78 965.938 553.808 966.006C553.836 966.074 553.85 966.147 553.85 966.221V969.051H562.25V966.221C562.25 966.147 562.264 966.074 562.292 966.006C562.32 965.938 562.362 965.877 562.414 965.825C562.466 965.773 562.528 965.731 562.596 965.703C562.664 965.675 562.736 965.661 562.81 965.661H576.24C576.314 965.661 576.386 965.675 576.454 965.703C576.522 965.731 576.584 965.773 576.636 965.825C576.688 965.877 576.73 965.938 576.758 966.006C576.786 966.074 576.8 966.147 576.8 966.221V969.051H585.19V966.221C585.19 966.147 585.204 966.074 585.232 966.006C585.26 965.938 585.302 965.877 585.354 965.825C585.406 965.773 585.468 965.731 585.536 965.703C585.604 965.675 585.676 965.661 585.75 965.661H599.18C599.254 965.661 599.326 965.675 599.394 965.703C599.462 965.731 599.524 965.773 599.576 965.825C599.628 965.877 599.67 965.938 599.698 966.006C599.726 966.074 599.74 966.147 599.74 966.221V969.051H608.13V966.221C608.13 966.147 608.144 966.074 608.172 966.006C608.2 965.938 608.242 965.877 608.294 965.825C608.346 965.773 608.408 965.731 608.476 965.703C608.544 965.675 608.616 965.661 608.69 965.661H622.12C622.194 965.661 622.266 965.675 622.334 965.703C622.402 965.731 622.464 965.773 622.516 965.825C622.568 965.877 622.61 965.938 622.638 966.006C622.666 966.074 622.68 966.147 622.68 966.221V969.051H631.08V966.221C631.08 966.147 631.094 966.074 631.122 966.006C631.15 965.938 631.192 965.877 631.244 965.825C631.296 965.773 631.358 965.731 631.426 965.703C631.494 965.675 631.566 965.661 631.64 965.661H645.07C645.144 965.661 645.216 965.675 645.284 965.703C645.352 965.731 645.414 965.773 645.466 965.825C645.518 965.877 645.56 965.938 645.588 966.006C645.616 966.074 645.63 966.147 645.63 966.221V969.051H654.02V966.221C654.02 966.147 654.034 966.074 654.062 966.006C654.09 965.938 654.132 965.877 654.184 965.825C654.236 965.773 654.298 965.731 654.366 965.703C654.434 965.675 654.506 965.661 654.58 965.661H759.78C759.854 965.661 759.926 965.675 759.994 965.703C760.062 965.731 760.124 965.773 760.176 965.825C760.228 965.877 760.27 965.938 760.298 966.006C760.326 966.074 760.34 966.147 760.34 966.221V969.051H768.74V966.221C768.74 966.147 768.754 966.074 768.782 966.006C768.811 965.938 768.852 965.877 768.904 965.825C768.956 965.773 769.018 965.731 769.086 965.703C769.154 965.675 769.226 965.661 769.3 965.661H782.73C782.878 965.662 783.02 965.722 783.124 965.826C783.229 965.931 783.289 966.073 783.29 966.221V969.051H791.68V966.221C791.68 966.147 791.694 966.074 791.722 966.006C791.75 965.938 791.792 965.877 791.844 965.825C791.896 965.773 791.958 965.731 792.026 965.703C792.094 965.675 792.166 965.661 792.24 965.661H805.67C805.744 965.661 805.816 965.675 805.884 965.703C805.952 965.731 806.014 965.773 806.066 965.825C806.118 965.877 806.16 965.938 806.188 966.006C806.216 966.074 806.23 966.147 806.23 966.221V969.051H814.62V966.221C814.62 966.147 814.634 966.074 814.662 966.006C814.69 965.938 814.732 965.877 814.784 965.825C814.836 965.773 814.898 965.731 814.966 965.703C815.034 965.675 815.106 965.661 815.18 965.661H828.61C828.684 965.661 828.756 965.675 828.824 965.703C828.892 965.731 828.954 965.773 829.006 965.825C829.058 965.877 829.1 965.938 829.128 966.006C829.156 966.074 829.17 966.147 829.17 966.221V969.051H837.57V966.221C837.57 966.147 837.584 966.074 837.612 966.006C837.64 965.938 837.682 965.877 837.734 965.825C837.786 965.773 837.848 965.731 837.916 965.703C837.984 965.675 838.056 965.661 838.13 965.661H851.56C851.707 965.663 851.847 965.723 851.95 965.828C852.053 965.932 852.111 966.074 852.11 966.221V969.051H860.51V966.221C860.51 966.147 860.524 966.074 860.552 966.006C860.58 965.938 860.622 965.877 860.674 965.825C860.726 965.773 860.788 965.731 860.856 965.703C860.924 965.675 860.996 965.661 861.07 965.661H874.5C874.574 965.661 874.646 965.675 874.714 965.703C874.782 965.731 874.844 965.773 874.896 965.825C874.948 965.877 874.99 965.938 875.018 966.006C875.046 966.074 875.06 966.147 875.06 966.221V969.051H883.45V966.221C883.45 966.147 883.464 966.074 883.492 966.006C883.52 965.938 883.562 965.877 883.614 965.825C883.666 965.773 883.728 965.731 883.796 965.703C883.864 965.675 883.936 965.661 884.01 965.661H897.44C897.514 965.661 897.586 965.675 897.654 965.703C897.722 965.731 897.784 965.773 897.836 965.825C897.888 965.877 897.93 965.938 897.958 966.006C897.986 966.074 898 966.147 898 966.221V969.051H937.17C938.934 969.05 940.68 969.397 942.31 970.072C943.94 970.747 945.42 971.736 946.667 972.983C947.915 974.231 948.904 975.711 949.579 977.341C950.253 978.971 950.6 980.717 950.6 982.481V982.481Z" fill="#3F3D56"/>
<path id="Vector_78" d="M1080.45 993.416H347.448V995.416H1080.45V993.416Z" fill="#3F3D56"/>
<path id="Vector_79" d="M914.642 726.847H748.2V723.416H672.728V726.847H505.599C502.613 726.847 499.749 728.033 497.638 730.144C495.526 732.256 494.34 735.119 494.34 738.105V966.017C494.34 969.003 495.526 971.866 497.638 973.978C499.749 976.089 502.613 977.275 505.599 977.275H914.642C917.628 977.275 920.492 976.089 922.604 973.978C924.715 971.866 925.901 969.003 925.901 966.017V738.105C925.901 736.627 925.61 735.163 925.044 733.797C924.478 732.431 923.649 731.19 922.604 730.144C921.558 729.099 920.317 728.27 918.951 727.704C917.585 727.138 916.121 726.847 914.642 726.847V726.847Z" fill="#3F3D56"/>
<path id="Vector_80" d="M710.448 831.416C724.255 831.416 735.448 820.223 735.448 806.416C735.448 792.609 724.255 781.416 710.448 781.416C696.641 781.416 685.448 792.609 685.448 806.416C685.448 820.223 696.641 831.416 710.448 831.416Z" stroke="#D0CDE1" stroke-width="2" stroke-miterlimit="10"/>
<path id="Vector_81" d="M702.448 840.416C716.255 840.416 727.448 829.223 727.448 815.416C727.448 801.609 716.255 790.416 702.448 790.416C688.641 790.416 677.448 801.609 677.448 815.416C677.448 829.223 688.641 840.416 702.448 840.416Z" fill="#D0CDE1"/>
</g>
<g id="plant">
<path id="Vector_82" d="M401.02 1029.55H212.02V1031.81H401.02V1029.55Z" fill="#3F3D56"/>
<path id="Vector_83" d="M322.139 956.717C302.228 989.224 309.078 1029.66 309.078 1029.66C309.078 1029.66 348.211 1017.39 368.122 984.883C388.033 952.377 381.183 911.942 381.183 911.942C381.183 911.942 342.05 924.211 322.139 956.717Z" fill="#3F3D56"/>
<path id="Vector_84" d="M308.266 1029.93L307.134 1029.75C306.724 1029.68 265.976 1022.93 241.572 993.732C217.167 964.533 217.755 923.233 217.763 922.819L217.787 921.673L218.919 921.852C219.328 921.917 260.077 928.669 284.481 957.868C308.886 987.067 308.298 1028.37 308.29 1028.78L308.266 1029.93Z" fill="#6C63FF"/>
<path id="Vector_85" d="M309.874 1030.95L308.78 1030.61C308.384 1030.49 269.059 1017.86 249.182 985.406C229.305 952.955 235.92 912.183 235.988 911.775L236.179 910.645L237.273 910.988C237.669 911.112 276.994 923.744 296.871 956.195C316.748 988.645 310.133 1029.42 310.065 1029.82L309.874 1030.95ZM237.793 913.277C236.887 920.12 233.279 955.613 250.887 984.361C268.497 1013.11 301.755 1026.02 308.26 1028.32C309.166 1021.48 312.774 985.987 295.166 957.24C277.556 928.492 244.298 915.581 237.793 913.277H237.793Z" fill="#3F3D56"/>
<path id="Vector_86" d="M310.321 924.328C322.471 924.328 332.321 914.478 332.321 902.328C332.321 890.177 322.471 880.328 310.321 880.328C298.171 880.328 288.321 890.177 288.321 902.328C288.321 914.478 298.171 924.328 310.321 924.328Z" fill="#3F3D56"/>
</g>
<g id="coffee">
<path id="Vector_87" d="M1175 962.051H1173V947.051C1173 946.256 1173.32 945.493 1173.88 944.931C1174.44 944.368 1175.2 944.052 1176 944.051H1181C1181.27 944.051 1181.52 943.945 1181.71 943.758C1181.89 943.57 1182 943.316 1182 943.051V933.051C1182 932.786 1181.89 932.531 1181.71 932.344C1181.52 932.156 1181.27 932.051 1181 932.051H1176C1175.2 932.05 1174.44 931.734 1173.88 931.171C1173.32 930.609 1173 929.846 1173 929.051V924.051C1173 923.786 1172.89 923.531 1172.71 923.344C1172.52 923.156 1172.27 923.051 1172 923.051H1163C1162.2 923.05 1161.44 922.734 1160.88 922.171C1160.32 921.609 1160 920.846 1160 920.051V919.051C1160 918.786 1159.89 918.531 1159.71 918.344C1159.52 918.156 1159.27 918.051 1159 918.051H1123C1122.73 918.051 1122.48 918.156 1122.29 918.344C1122.11 918.531 1122 918.786 1122 919.051V920.051C1122 920.846 1121.68 921.609 1121.12 922.171C1120.56 922.734 1119.8 923.05 1119 923.051H1110C1109.73 923.051 1109.48 923.156 1109.29 923.344C1109.11 923.531 1109 923.786 1109 924.051V929.051C1109 929.846 1108.68 930.609 1108.12 931.171C1107.56 931.734 1106.8 932.05 1106 932.051H1101C1100.73 932.051 1100.48 932.156 1100.29 932.344C1100.11 932.531 1100 932.786 1100 933.051V943.051C1100 943.316 1100.11 943.57 1100.29 943.758C1100.48 943.945 1100.73 944.051 1101 944.051H1107C1107.8 944.052 1108.56 944.368 1109.12 944.931C1109.68 945.493 1110 946.256 1110 947.051V962.051H1108V947.051C1108 946.786 1107.89 946.531 1107.71 946.344C1107.52 946.156 1107.27 946.051 1107 946.051H1101C1100.2 946.05 1099.44 945.734 1098.88 945.171C1098.32 944.609 1098 943.846 1098 943.051V933.051C1098 932.256 1098.32 931.493 1098.88 930.931C1099.44 930.368 1100.2 930.052 1101 930.051H1106C1106.27 930.051 1106.52 929.945 1106.71 929.758C1106.89 929.57 1107 929.316 1107 929.051V924.051C1107 923.256 1107.32 922.493 1107.88 921.931C1108.44 921.368 1109.2 921.052 1110 921.051H1119C1119.27 921.051 1119.52 920.945 1119.71 920.758C1119.89 920.57 1120 920.316 1120 920.051V919.051C1120 918.256 1120.32 917.493 1120.88 916.931C1121.44 916.368 1122.2 916.052 1123 916.051H1159C1159.8 916.052 1160.56 916.368 1161.12 916.931C1161.68 917.493 1162 918.256 1162 919.051V920.051C1162 920.316 1162.11 920.57 1162.29 920.758C1162.48 920.945 1162.73 921.051 1163 921.051H1172C1172.8 921.052 1173.56 921.368 1174.12 921.931C1174.68 922.493 1175 923.256 1175 924.051V929.051C1175 929.316 1175.11 929.57 1175.29 929.758C1175.48 929.945 1175.73 930.051 1176 930.051H1181C1181.8 930.052 1182.56 930.368 1183.12 930.931C1183.68 931.493 1184 932.256 1184 933.051V943.051C1184 943.846 1183.68 944.609 1183.12 945.171C1182.56 945.734 1181.8 946.05 1181 946.051H1176C1175.73 946.051 1175.48 946.156 1175.29 946.344C1175.11 946.531 1175 946.786 1175 947.051V962.051Z" fill="#3F3D56"/>
<path id="Vector_88" d="M1172 1032.05H1111C1110.2 1032.05 1109.44 1031.73 1108.88 1031.17C1108.32 1030.61 1108 1029.85 1108 1029.05V986.051H1110V1029.05C1110 1029.32 1110.11 1029.57 1110.29 1029.76C1110.48 1029.95 1110.73 1030.05 1111 1030.05H1172C1172.27 1030.05 1172.52 1029.95 1172.71 1029.76C1172.89 1029.57 1173 1029.32 1173 1029.05V986.051H1175V1029.05C1175 1029.85 1174.68 1030.61 1174.12 1031.17C1173.56 1031.73 1172.8 1032.05 1172 1032.05V1032.05Z" fill="#3F3D56"/>
<path id="Vector_89" d="M1185 969.051H1110C1108.9 969.051 1108 969.946 1108 971.051V991.051C1108 992.155 1108.9 993.051 1110 993.051H1185C1186.1 993.051 1187 992.155 1187 991.051V971.051C1187 969.946 1186.1 969.051 1185 969.051Z" fill="#6C63FF"/>
<path id="Vector_90" d="M1178.5 987.051H1103.5C1102.7 987.05 1101.94 986.734 1101.38 986.171C1100.82 985.609 1100.5 984.846 1100.5 984.051V964.051C1100.5 963.256 1100.82 962.493 1101.38 961.931C1101.94 961.368 1102.7 961.052 1103.5 961.051H1178.5C1179.3 961.052 1180.06 961.368 1180.62 961.931C1181.18 962.493 1181.5 963.256 1181.5 964.051V984.051C1181.5 984.846 1181.18 985.609 1180.62 986.171C1180.06 986.734 1179.3 987.05 1178.5 987.051ZM1103.5 963.051C1103.23 963.051 1102.98 963.156 1102.79 963.344C1102.61 963.531 1102.5 963.786 1102.5 964.051V984.051C1102.5 984.316 1102.61 984.57 1102.79 984.758C1102.98 984.945 1103.23 985.051 1103.5 985.051H1178.5C1178.77 985.051 1179.02 984.945 1179.21 984.758C1179.39 984.57 1179.5 984.316 1179.5 984.051V964.051C1179.5 963.786 1179.39 963.531 1179.21 963.344C1179.02 963.156 1178.77 963.051 1178.5 963.051H1103.5Z" fill="#3F3D56"/>
<path id="Vector_91" d="M1226.02 1029.55H1037.02V1031.81H1226.02V1029.55Z" fill="#3F3D56"/>
<g id="steam">
<path id="steam-left" d="M1139 909.051C1136.34 891.143 1135.64 872.999 1136.91 854.94L1139 825.051C1127.46 848.016 1130.07 878.243 1139 909.051V909.051Z" fill="#D0CDE1"/>
<path id="steam-right" d="M1148 914.051C1146.72 903.365 1146.38 892.587 1146.99 881.842L1148 864.051C1142.45 877.721 1143.7 895.713 1148 914.051Z" fill="#D0CDE1"/>
</g>
</g>
</g>
</g>
<defs>
<linearGradient id="paint0_linear" x1="721.993" y1="900.691" x2="721.993" y2="4.63356e-05" gradientUnits="userSpaceOnUse">
<stop offset="0.2" stop-color="#808080" stop-opacity="0.4"/>
<stop offset="0.46" stop-color="#808080" stop-opacity="0.5"/>
<stop offset="1" stop-opacity="0.6"/>
</linearGradient>
<clipPath id="clip0">
<rect width="1444" height="1090" fill="white"/>
</clipPath>
<clipPath id="clip1">
<rect width="1101" height="666.051" fill="white" transform="translate(186 366)"/>
</clipPath>
</defs>
</svg>
